<?xml version="1.0" encoding="UTF-8"?>
<!-- Generator: Adobe Illustrator 19.1.0, SVG Export Plug-In . SVG Version: 6.00 Build 0)  -->
<svg version="1.1" id="Ebene_1" xmlns="http://www.w3.org/2000/svg" xmlns:xlink="http://www.w3.org/1999/xlink" x="0px" y="0px" viewBox="0 0 238.8 85.8" style="enable-background:new 0 0 238.8 85.8;" xml:space="preserve">
<style type="text/css">
	.st0{fill:#FFFFFF;}
	.st1{fill:none;stroke:#FFFFFF;stroke-width:0.937;stroke-miterlimit:3.864;}
</style>
<polyline class="st0" points="168.9,21.1 167.8,23.1 152.9,23.1 161.7,7.3 163.1,9.9 156.8,21.1 "/>
<polyline class="st0" points="160.6,5.2 150.6,23.1 135.7,23.1 136.8,21.1 148.9,21.1 159.3,2.6 "/>
<polyline class="st0" points="141.8,43 151.8,25 166.7,25 165.6,27 153.5,27 143.1,45.6 "/>
<polyline class="st0" points="140.7,40.9 149.5,25 134.6,25 133.5,27 145.6,27 139.3,38.3 "/>
<polyline class="st0" points="162.7,83.4 158.2,74.7 162.7,66.6 165.4,66.6 160.8,74.7 165.6,83.4 "/>
<polyline class="st0" points="146.6,83.4 146.6,81.4 139.5,81.4 146.5,68.9 146.5,66.6 137.2,66.6 137.2,68.6 143.8,68.6   136.8,81.2 136.8,83.4 "/>
<path class="st0" d="M156.4,83.4c0-0.3-0.1-1.8-0.1-2.2V66.6h-2.4v6.2c-0.7-1-1.5-1.4-2.7-1.4c-3,0-3.4,2.9-3.4,6.1  c0,2.9,0.3,6.1,3.5,6.1c1.2,0,2.1-0.5,2.7-1.5l0,1.3H156.4z M153.9,77.7c0,2-0.1,4.3-1.9,4.3c-1.6,0-1.8-2.3-1.8-4.4  c0-2.3,0.1-4.5,1.8-4.5C153.8,73.1,153.9,75.4,153.9,77.7"/>
<path class="st0" d="M10.4,27l-5.1-9.2l4.9-7.6H7.2l-4.6,7.7L7.4,27H10.4z M2.6,10.2H0V27h2.6"/>
<path class="st0" d="M19.5,27c-0.1-1.3-0.1-2.6-0.1-3.8V19c0-2.7-0.9-4-3.7-4c-2.1,0-4.1,0.7-4.1,3.2v0.2h2.4v-0.1  c0-1,0.6-1.7,1.6-1.7c1.5,0,1.5,1.4,1.5,2.6v0.6c-3,0-5.8,0.3-5.8,4c0,1.9,0.8,3.5,3,3.5c1.4,0,2.3-0.5,3-1.6l0,1.4H19.5z M17,22.6  c0,1.2-0.3,3-1.9,3c-1.2,0-1.4-1.1-1.4-2c0-1.8,1.2-2.3,2.9-2.3H17"/>
<path class="st0" d="M27.1,27.1v-1.7c-0.3,0-0.6,0.1-0.8,0.1c-1,0-1.3-0.4-1.3-1.6V17h2v-1.6h-2v-3.1l-2.4,1v2.1H21V17h1.6v7.1  c0,2.3,0.6,3.1,3,3.1C26.1,27.1,26.6,27.1,27.1,27.1"/>
<path class="st0" d="M37.2,27v-8.4c0-2.2-0.8-3.6-3-3.6c-1.2,0-2.2,0.6-2.9,1.6v-6.4h-2.4V27h2.4v-7.3c0-1.5,0.6-3,1.9-3  c1.5,0,1.6,1.2,1.6,2.6V27"/>
<path class="st0" d="M48.1,20.9c0-3.5-0.3-5.9-4.2-5.9c-3.9,0-4.4,2.9-4.4,6.2c0,3.6,0.3,6.1,4.3,6.1C47.7,27.3,48.1,24.8,48.1,20.9   M45.7,22.5c0,1.4,0,3.2-1.8,3.2c-1.9,0-1.9-2-1.9-3.3v-2c0-1.4,0-3.6,1.9-3.6c1.8,0,1.8,2,1.8,3.6"/>
<rect x="50.5" y="10.2" class="st0" width="2.4" height="16.8"/>
<path class="st0" d="M58.2,10.4h-2.5v2.3h2.5V10.4z M58.2,15.3h-2.4V27h2.4"/>
<path class="st0" d="M69.6,27L66,20.4l3.2-5h-2.7l-3.1,5.1l3.4,6.6H69.6z M63.4,10.2H61V27h2.4"/>
<path class="st0" d="M78.6,21.5c0-0.6,0-1.3,0-2C78.5,17,77.8,15,74.6,15c-4,0-4.3,3.3-4.3,6.4c0,3.2,0.3,5.8,4.2,5.8  c2.8,0,3.9-1.4,4-4h-2.3c0,1.2-0.3,2.4-1.7,2.4c-1.5,0-1.8-1.3-1.8-3.3v-0.9H78.6z M76.2,20h-3.5c0-0.5,0-1,0.1-1.5  c0.1-1.1,0.6-1.9,1.8-1.9c1.1,0,1.5,0.8,1.6,1.8C76.2,19,76.2,19.5,76.2,20"/>
<path class="st0" d="M89.3,27v-8.4c0-2-0.7-3.6-3-3.6c-1.4,0-2.4,0.8-3,1.7v-1.4h-2.4c0.1,0.7,0.1,1.5,0.1,2.2V27h2.4v-7.5  c0-1.2,0.5-2.8,2-2.8c1.5,0,1.6,1.3,1.6,2.6V27"/>
<path class="st0" d="M97.1,27.1v-1.7c-0.3,0-0.6,0.1-0.8,0.1c-1,0-1.3-0.4-1.3-1.6V17h2v-1.6h-2v-3.1l-2.4,1v2.1H91V17h1.6v7.1  c0,2.3,0.6,3.1,3,3.1C96.1,27.1,96.6,27.1,97.1,27.1"/>
<path class="st0" d="M106.4,27c-0.1-1.3-0.1-2.6-0.1-3.8V19c0-2.7-0.9-4-3.7-4c-2.1,0-4.1,0.7-4.1,3.2v0.2h2.4v-0.1  c0-1,0.6-1.7,1.6-1.7c1.5,0,1.5,1.4,1.5,2.6v0.6c-3,0-5.8,0.3-5.8,4c0,1.9,0.8,3.5,3,3.5c1.4,0,2.3-0.5,3-1.6l0,1.4H106.4z   M104,22.6c0,1.2-0.3,3-1.9,3c-1.2,0-1.4-1.1-1.4-2c0-1.8,1.2-2.3,2.9-2.3h0.5"/>
<path class="st0" d="M117.3,15.3h-2.4l0,1.4c-0.6-1.1-1.5-1.6-2.8-1.6c-3.2,0-3.4,3.3-3.4,6.3c0,2.5,0.3,5.5,3.4,5.5  c1.2,0,2-0.4,2.7-1.3v1.7c0,1.8-0.3,2.8-1.9,2.8c-1.2,0-1.5-1-1.5-2h-2.6c0,2.6,1.4,3.4,3.9,3.4c2.9,0,4.5-1,4.5-4V17.2  C117.2,16.6,117.3,15.9,117.3,15.3 M114.8,21.1c0,1.5,0,4.2-1.9,4.2c-1.6,0-1.8-2.1-1.8-4c0-2.5,0.1-4.7,1.8-4.7  C114.7,16.7,114.8,19.1,114.8,21.1"/>
<path class="st1" d="M175.5,0v85.8 M126.9,0v85.8"/>
<path class="st0" d="M191.7,27v-1.2h-5.3V10.3H185V27H191.7z M201.2,21.4c0-0.6,0-1.3,0-1.9c-0.1-2.4-0.7-4.4-3.7-4.4  c-4,0-4,3.6-4,6.8c0,3,0.5,5.4,3.9,5.4c2.9,0,3.7-1.7,3.8-3.8h-1.3c-0.1,1.5-0.5,2.7-2.5,2.7c-2.4,0-2.5-2.2-2.5-4.1v-0.7H201.2z   M199.8,20.3h-4.9c0-0.5,0-1,0.1-1.5c0.2-1.5,0.8-2.6,2.6-2.6c1.6,0,2.2,1.3,2.3,2.7C199.8,19.4,199.8,19.8,199.8,20.3 M205.5,10.5  h-1.6v1.8h1.6V10.5z M205.3,15.3H204V27h1.3V15.3z M216.4,20.9c0-2.5-0.3-5.8-3.6-5.8c-1.3,0-2.2,0.6-2.9,1.7l0-1.4h-1.3  c0.1,0.9,0.1,1.8,0.1,2.7v13.4h1.3v-5.6c0.7,1,1.5,1.3,2.7,1.3C216.4,27.2,216.4,23.6,216.4,20.9 M215.1,20.9c0,1.8,0.2,5.1-2.4,5.1  c-2.8,0-2.7-2.8-2.7-4.8c0-1.9,0-5,2.6-5C215.1,16.2,215.1,19.1,215.1,20.9 M224.4,27v-1.1h-4.7l4.6-9.4v-1.2h-5.7v1.1h4.3l-4.6,9.4  V27H224.4z M228.2,10.5h-1.6v1.8h1.6V10.5z M228.1,15.3h-1.3V27h1.3V15.3z M238.8,15.3h-1.3l0,1.4c-0.6-1.1-1.3-1.6-2.8-1.6  c-3.2,0-3.7,3.2-3.7,6.1c0,2.7,0.2,5.7,3.6,5.7c1.2,0,2-0.4,2.7-1.4V27c0,2-0.2,3.6-2.6,3.6c-1.6,0-2.1-0.8-2.1-2.3h-1.4  c0,2.2,1.2,3.3,3.5,3.3c2.9,0,3.9-1.4,3.9-4.1V17.3C238.7,16.6,238.8,16,238.8,15.3 M237.4,20.6c0,2,0.1,5.3-2.7,5.3  c-2.4,0-2.3-2.6-2.3-4.6c0-1.8,0-5,2.5-5C237.3,16.2,237.4,18.7,237.4,20.6"/>
<path class="st0" d="M96.1,39.9c0-0.8-0.2-1.4-0.6-1.9c-0.4-0.4-1-0.6-1.8-0.6c-0.6,0-1,0.1-1.4,0.2c-0.4,0.2-0.6,0.4-0.8,0.7  c-0.2,0.3-0.3,0.7-0.4,1.2c-0.1,0.5-0.1,1-0.1,1.7v3.4c0,0.5,0,1,0.1,1.4c0.1,0.4,0.2,0.8,0.4,1.1c0.2,0.3,0.5,0.6,0.8,0.7  c0.4,0.2,0.9,0.3,1.5,0.3c0.6,0,1-0.1,1.4-0.3c0.3-0.2,0.6-0.5,0.8-0.8c0.2-0.3,0.3-0.7,0.3-1.2c0-0.5,0.1-0.9,0.1-1.4v-0.3  c0-0.2,0-0.4-0.1-0.6c0-0.2-0.1-0.4-0.2-0.7c-0.1-0.2-0.2-0.5-0.4-0.7c-0.2-0.2-0.4-0.4-0.7-0.5c-0.3-0.1-0.6-0.2-1-0.2  c-0.5,0-0.9,0.1-1.2,0.3c-0.4,0.2-0.6,0.5-0.8,0.9l0,0v-0.9c0-0.4,0-0.8,0-1.2c0-0.4,0.1-0.8,0.2-1.1c0.1-0.3,0.3-0.6,0.5-0.8  c0.2-0.2,0.6-0.3,1-0.3c0.5,0,0.9,0.1,1.1,0.4c0.2,0.3,0.4,0.7,0.4,1.2H96.1z M95.2,45.6c0,0.3-0.1,0.6-0.2,0.9  c-0.1,0.3-0.3,0.5-0.5,0.6c-0.2,0.2-0.5,0.2-0.9,0.2c-0.3,0-0.6-0.1-0.8-0.2c-0.2-0.1-0.4-0.3-0.5-0.5c-0.1-0.2-0.2-0.4-0.3-0.6  c-0.1-0.2-0.1-0.4-0.1-0.6s0-0.4,0-0.5c0-0.1,0-0.2,0-0.2c0-0.9,0.2-1.5,0.5-1.9c0.3-0.4,0.8-0.6,1.3-0.6c0.6,0,1,0.2,1.3,0.6  c0.2,0.4,0.3,1,0.3,1.8C95.2,45,95.2,45.3,95.2,45.6 M84.9,40.2c0.3-0.2,0.6-0.5,0.9-0.7c0.3-0.2,0.6-0.5,0.9-0.8V48h0.9V37.6h-0.8  c-0.3,0.3-0.6,0.6-0.9,0.9s-0.7,0.5-1,0.8V40.2z M78.7,37.8c-0.4,0.3-0.6,0.6-0.8,1c-0.2,0.4-0.3,0.9-0.3,1.4c0,0.5,0,1,0,1.5v2.3  c0,0.5,0,1,0,1.5c0,0.5,0.1,1,0.3,1.4c0.2,0.4,0.4,0.7,0.8,1c0.4,0.3,0.9,0.4,1.5,0.4c0.7,0,1.2-0.1,1.5-0.4c0.4-0.3,0.6-0.6,0.8-1  c0.2-0.4,0.3-0.9,0.3-1.4c0-0.5,0-1,0-1.5v-2.3c0-0.5,0-1,0-1.5c0-0.5-0.1-1-0.3-1.4c-0.2-0.4-0.4-0.7-0.8-1  c-0.4-0.3-0.9-0.4-1.5-0.4C79.6,37.4,79.1,37.6,78.7,37.8 M78.6,40.8c0-0.6,0.1-1,0.2-1.4c0.1-0.3,0.3-0.6,0.4-0.8  c0.2-0.2,0.4-0.3,0.6-0.3c0.2,0,0.4-0.1,0.6-0.1c0.2,0,0.4,0,0.6,0.1c0.2,0,0.4,0.2,0.6,0.3c0.2,0.2,0.3,0.4,0.4,0.8  c0.1,0.3,0.2,0.8,0.2,1.4v4.1c0,0.6-0.1,1-0.2,1.4c-0.1,0.3-0.3,0.6-0.4,0.8c-0.2,0.2-0.4,0.3-0.6,0.3c-0.2,0-0.4,0.1-0.6,0.1  c-0.2,0-0.4,0-0.6-0.1c-0.2,0-0.4-0.2-0.6-0.3c-0.2-0.2-0.3-0.4-0.4-0.8c-0.1-0.3-0.2-0.8-0.2-1.4V40.8z M76.2,47.2H72  c0.6-0.9,1.1-1.6,1.5-2.3c0.4-0.6,0.8-1.2,1.1-1.7c0.3-0.5,0.6-0.9,0.8-1.2c0.2-0.3,0.4-0.7,0.5-0.9c0.1-0.3,0.2-0.5,0.3-0.8  c0.1-0.2,0.1-0.5,0.1-0.7c0-0.4-0.1-0.8-0.2-1.1c-0.2-0.3-0.4-0.5-0.6-0.7c-0.3-0.2-0.5-0.3-0.9-0.3c-0.3-0.1-0.6-0.1-0.9-0.1  c-0.3,0-0.6,0-0.9,0.1c-0.3,0.1-0.6,0.2-0.8,0.4c-0.2,0.2-0.5,0.5-0.6,0.8c-0.2,0.3-0.2,0.8-0.2,1.3h0.9c0-0.5,0.1-1,0.4-1.4  c0.3-0.4,0.7-0.5,1.3-0.5c0.2,0,0.4,0,0.6,0.1c0.2,0,0.4,0.1,0.5,0.2c0.2,0.1,0.3,0.3,0.4,0.5c0.1,0.2,0.1,0.5,0.1,0.8  c0,0.3-0.1,0.8-0.4,1.2c-0.2,0.5-0.6,1-0.9,1.6c-0.4,0.6-0.9,1.3-1.4,2c-0.5,0.7-1.1,1.6-1.7,2.5V48h5.3V47.2z M65.8,40.5h-0.9V48  h0.9V40.5z M65.9,37.2h-1.1v1.1h1.1V37.2z M61.9,48h0.9c0-0.4-0.1-0.8-0.1-1.1c0-0.3,0-0.6,0-0.8v-3.8c0-0.5-0.1-0.9-0.3-1.1  c-0.2-0.3-0.4-0.5-0.6-0.6c-0.2-0.1-0.5-0.2-0.8-0.2c-0.3,0-0.5,0-0.7,0c-0.3,0-0.6,0-0.9,0.1c-0.3,0.1-0.6,0.2-0.8,0.4  c-0.2,0.2-0.4,0.4-0.6,0.6c-0.1,0.3-0.2,0.6-0.2,0.9h1c0-0.4,0.1-0.8,0.4-1c0.3-0.2,0.6-0.3,1.1-0.3c0.6,0,1,0.2,1.2,0.5  c0.2,0.3,0.3,0.7,0.3,1.3v0.6c-0.3,0-0.5,0-0.8,0c-0.3,0-0.6,0-0.9,0.1c-0.3,0-0.6,0.1-0.9,0.2c-0.3,0.1-0.5,0.2-0.8,0.4  c-0.2,0.2-0.4,0.4-0.5,0.7c-0.1,0.3-0.2,0.7-0.2,1.1c0,0.7,0.2,1.2,0.5,1.6c0.4,0.4,0.9,0.6,1.5,0.6c0.9,0,1.7-0.4,2.1-1.1h0V48z   M61.8,45.5c0,0.2,0,0.5-0.1,0.7c-0.1,0.2-0.2,0.4-0.4,0.6c-0.2,0.2-0.4,0.3-0.6,0.4c-0.2,0.1-0.5,0.2-0.7,0.2c-0.5,0-0.8-0.2-1-0.5  c-0.2-0.3-0.3-0.7-0.3-1.1c0-0.5,0.1-0.8,0.3-1c0.2-0.2,0.5-0.4,0.8-0.5c0.3-0.1,0.7-0.2,1.1-0.2c0.4,0,0.7,0,1,0V45.5z M47.4,48  v-9.9h0l3.3,9.9h1.1l3.2-9.9h0V48h1V37.2h-1.5L51.3,47h0l-3.2-9.7h-1.6V48H47.4z M39.9,48H41v-1.1h-1.1V48z M36.4,43.7  c0.3-0.1,0.6-0.4,0.8-0.7h0c0,0.8,0,1.5-0.1,2c0,0.6-0.1,1-0.2,1.4c-0.1,0.3-0.3,0.6-0.5,0.7s-0.6,0.2-1.1,0.2  c-0.5,0-0.9-0.1-1.2-0.4c-0.2-0.3-0.3-0.7-0.3-1.2h-1c0,0.9,0.2,1.5,0.6,1.9c0.4,0.4,1,0.6,1.9,0.6c0.6,0,1.1-0.1,1.5-0.3  c0.4-0.2,0.6-0.5,0.8-1c0.2-0.4,0.3-1,0.3-1.7c0-0.7,0.1-1.5,0.1-2.5v-1.3c0-0.6,0-1.2-0.1-1.7c0-0.5-0.1-0.9-0.3-1.3  c-0.2-0.3-0.4-0.6-0.8-0.8s-0.9-0.3-1.5-0.3c-0.5,0-1,0.1-1.3,0.2c-0.3,0.2-0.6,0.4-0.8,0.7c-0.2,0.3-0.3,0.6-0.4,1  c-0.1,0.4-0.1,0.8-0.1,1.3c0,1.1,0.2,1.9,0.6,2.5c0.4,0.5,1,0.8,1.9,0.8C35.7,43.9,36,43.8,36.4,43.7 M34.5,42.9  c-0.2-0.2-0.4-0.3-0.5-0.6c-0.1-0.2-0.2-0.5-0.2-0.8c0-0.3-0.1-0.6-0.1-0.9c0-0.3,0-0.6,0.1-0.9c0-0.3,0.1-0.5,0.2-0.8  c0.1-0.2,0.3-0.4,0.5-0.5c0.2-0.1,0.5-0.2,0.9-0.2c0.4,0,0.8,0.1,1,0.2c0.2,0.1,0.4,0.3,0.5,0.6c0.1,0.2,0.2,0.5,0.2,0.8  c0,0.3,0,0.6,0,0.9c0,0.2,0,0.4,0,0.7s-0.1,0.5-0.2,0.8c-0.1,0.2-0.3,0.5-0.5,0.6c-0.2,0.2-0.6,0.3-1,0.3C35,43.1,34.7,43,34.5,42.9   M31.4,47.2h-4.3c0.6-0.9,1.1-1.6,1.5-2.3c0.4-0.6,0.8-1.2,1.1-1.7c0.3-0.5,0.6-0.9,0.8-1.2c0.2-0.3,0.4-0.7,0.5-0.9  c0.1-0.3,0.2-0.5,0.3-0.8c0.1-0.2,0.1-0.5,0.1-0.7c0-0.4-0.1-0.8-0.2-1.1c-0.2-0.3-0.4-0.5-0.6-0.7c-0.3-0.2-0.5-0.3-0.9-0.3  c-0.3-0.1-0.6-0.1-0.9-0.1c-0.3,0-0.6,0-0.9,0.1c-0.3,0.1-0.6,0.2-0.8,0.4c-0.2,0.2-0.5,0.5-0.6,0.8c-0.2,0.3-0.2,0.8-0.2,1.3H27  c0-0.5,0.1-1,0.4-1.4c0.3-0.4,0.7-0.5,1.3-0.5c0.2,0,0.4,0,0.6,0.1c0.2,0,0.4,0.1,0.5,0.2c0.2,0.1,0.3,0.3,0.4,0.5  c0.1,0.2,0.2,0.5,0.2,0.8c0,0.3-0.1,0.8-0.4,1.2c-0.2,0.5-0.6,1-0.9,1.6c-0.4,0.6-0.9,1.3-1.4,2c-0.5,0.7-1.1,1.6-1.7,2.5V48h5.3  V47.2z M23.7,43.4h-7.5v0.7h7.5V43.4z M14.1,48h1.1v-1.1h-1.1V48z M8.9,41.5c-0.3,0.1-0.5,0.3-0.8,0.6v-3.7H12v-0.8H7.2v5.6h0.9  c0-0.2,0.1-0.3,0.2-0.5c0.1-0.1,0.2-0.2,0.4-0.3c0.2-0.1,0.3-0.2,0.5-0.2c0.2,0,0.3-0.1,0.5-0.1c0.4,0,0.7,0.1,1,0.2  c0.2,0.1,0.4,0.3,0.5,0.6c0.1,0.2,0.2,0.5,0.2,0.8c0,0.3,0,0.6,0,1c0,0.3,0,0.6-0.1,0.9c0,0.3-0.1,0.6-0.2,0.8  c-0.1,0.2-0.3,0.5-0.5,0.6s-0.5,0.2-0.9,0.2c-0.6,0-1.1-0.2-1.3-0.5c-0.3-0.3-0.4-0.8-0.4-1.4h-1c0,0.9,0.2,1.6,0.6,2  c0.4,0.4,1.1,0.6,2,0.6c0.6,0,1-0.1,1.4-0.3c0.3-0.2,0.6-0.5,0.8-0.8c0.2-0.3,0.3-0.7,0.4-1.1c0.1-0.4,0.1-0.8,0.1-1.3  c0-0.3,0-0.7,0-1.1c0-0.4-0.1-0.8-0.3-1.1c-0.2-0.3-0.4-0.6-0.7-0.9c-0.3-0.2-0.8-0.4-1.5-0.4C9.5,41.3,9.2,41.4,8.9,41.5 M5.6,47.2  H1.3c0.6-0.9,1.1-1.6,1.5-2.3c0.4-0.6,0.8-1.2,1.1-1.7c0.3-0.5,0.6-0.9,0.8-1.2c0.2-0.3,0.4-0.7,0.5-0.9c0.1-0.3,0.2-0.5,0.3-0.8  c0.1-0.2,0.1-0.5,0.1-0.7c0-0.4-0.1-0.8-0.2-1.1c-0.2-0.3-0.4-0.5-0.6-0.7c-0.3-0.2-0.5-0.3-0.9-0.3c-0.3-0.1-0.6-0.1-0.9-0.1  c-0.3,0-0.6,0-0.9,0.1c-0.3,0.1-0.6,0.2-0.8,0.4c-0.2,0.2-0.5,0.5-0.6,0.8c-0.2,0.3-0.2,0.8-0.2,1.3h0.9c0-0.5,0.1-1,0.4-1.4  c0.3-0.4,0.7-0.5,1.3-0.5c0.2,0,0.4,0,0.6,0.1c0.2,0,0.4,0.1,0.5,0.2c0.2,0.1,0.3,0.3,0.4,0.5c0.1,0.2,0.2,0.5,0.2,0.8  c0,0.3-0.1,0.8-0.4,1.2c-0.2,0.5-0.6,1-0.9,1.6c-0.4,0.6-0.9,1.3-1.4,2c-0.5,0.7-1.1,1.6-1.7,2.5V48h5.3V47.2z"/>
</svg>