<?xml version="1.0" encoding="UTF-8"?>
<!-- Generator: Adobe Illustrator 19.1.0, SVG Export Plug-In . SVG Version: 6.00 Build 0)  -->
<svg version="1.1" id="Ebene_1" xmlns="http://www.w3.org/2000/svg" xmlns:xlink="http://www.w3.org/1999/xlink" x="0px" y="0px" viewBox="0 0 18 18" style="enable-background:new 0 0 18 18;" xml:space="preserve">
<style type="text/css">
	.st0{fill:#FFFFFF;}
</style>
<path class="st0" d="M11.2,17c0.8-0.8,1.5-2,2-3.4c0.8,0.2,1.5,0.4,2.2,0.7C14.3,15.6,12.9,16.6,11.2,17 M2.6,14.3  c0.7-0.3,1.5-0.5,2.2-0.7c0.5,1.5,1.2,2.7,2,3.4C5.1,16.6,3.7,15.6,2.6,14.3 M6.8,1c-0.8,0.8-1.5,2-2,3.4C4.1,4.2,3.3,4,2.6,3.7  C3.7,2.4,5.1,1.4,6.8,1 M15.4,3.7c-0.7,0.3-1.5,0.5-2.2,0.7c-0.5-1.5-1.2-2.7-2-3.4C12.9,1.4,14.3,2.4,15.4,3.7 M13.9,8.6  c0-1.3-0.2-2.5-0.5-3.6c0.8-0.2,1.7-0.5,2.5-0.8c0.9,1.3,1.4,2.7,1.5,4.4H13.9z M13.9,9.4h3.4c-0.1,1.6-0.6,3.1-1.5,4.4  c-0.8-0.3-1.6-0.6-2.5-0.8C13.7,11.9,13.8,10.7,13.9,9.4 M9.4,12.4v-3h3.8c0,1.2-0.2,2.4-0.5,3.4C11.6,12.6,10.5,12.4,9.4,12.4   M9.4,17.3v-4.2c1.1,0,2.1,0.1,3.2,0.3C11.8,15.6,10.7,17,9.4,17.3 M8.6,13.1v4.2c-1.3-0.2-2.5-1.7-3.2-3.8  C6.5,13.2,7.6,13.1,8.6,13.1 M4.8,9.4h3.8v3c-1.1,0-2.3,0.1-3.3,0.4C5,11.8,4.8,10.6,4.8,9.4 M4.1,9.4c0,1.3,0.2,2.5,0.5,3.6  c-0.8,0.2-1.7,0.5-2.5,0.8C1.3,12.5,0.8,11,0.7,9.4H4.1z M4.1,8.6H0.7C0.8,7,1.3,5.5,2.2,4.3C3,4.6,3.8,4.8,4.6,5.1  C4.3,6.1,4.2,7.3,4.1,8.6 M8.6,5.6v3H4.8c0-1.2,0.2-2.4,0.5-3.4C6.4,5.4,7.5,5.6,8.6,5.6 M8.6,0.7v4.2c-1.1,0-2.1-0.1-3.2-0.3  C6.2,2.4,7.3,1,8.6,0.7 M9.4,4.9V0.7c1.3,0.2,2.5,1.7,3.2,3.8C11.5,4.8,10.4,4.9,9.4,4.9 M9.4,5.6c1.1,0,2.3-0.1,3.3-0.4  c0.3,1,0.4,2.2,0.5,3.4H9.4V5.6z M9,0C4,0,0,4,0,9c0,5,4,9,9,9c5,0,9-4,9-9C18,4,14,0,9,0"/>
</svg>